<svg width="266" height="72" viewBox="0 0 266 72" fill="none" xmlns="http://www.w3.org/2000/svg">
<g clip-path="url(#clip0)">
<path d="M23.384 18.856V36.064H38.936V41.32H23.384V64H17.12V13.6H40.736V18.856H23.384ZM76.7366 51.76C76.7366 55.84 75.6086 58.912 73.3526 60.976C71.1446 62.992 67.9526 64 63.7766 64H62.6966C58.5206 64 55.3046 62.992 53.0486 60.976C50.8406 58.912 49.7366 55.84 49.7366 51.76V13.6H56.0006V53.128C56.0006 54.616 56.5526 55.888 57.6566 56.944C58.7606 58 60.2006 58.528 61.9766 58.528H64.4966C66.2726 58.528 67.7126 58 68.8166 56.944C69.9206 55.888 70.4726 54.616 70.4726 53.128V13.6H76.7366V51.76ZM105.476 64L94.4598 18.928V64H88.6278V13.6H98.8518L109.94 58.672V13.6H115.772V64H105.476ZM128.003 44.2V38.8H151.403V44.2H128.003ZM190.003 52.624C190.003 56.752 189.043 59.68 187.123 61.408C185.251 63.136 182.131 64 177.763 64H163.651V13.6H176.899C181.219 13.6 184.483 14.488 186.691 16.264C188.899 17.992 190.003 20.848 190.003 24.832V52.624ZM183.739 24.184C183.739 22.6 183.259 21.352 182.299 20.44C181.339 19.48 180.067 19 178.483 19H169.915V58.6H178.411C180.235 58.6 181.579 58.192 182.443 57.376C183.307 56.512 183.739 55.168 183.739 53.344V24.184Z" fill="#525A5C"/>
<g filter="url(#filter0_d)">
<path d="M230.293 68.001C234.652 68.001 238.735 67.1758 242.544 65.5254C246.353 63.9173 249.653 61.6956 252.446 58.8604C255.282 56.0674 257.503 52.7666 259.111 48.958C260.719 45.1917 261.523 41.1715 261.523 36.8975C261.523 32.5811 260.719 28.5186 259.111 24.71C257.503 20.9437 255.282 17.6429 252.446 14.8076C249.653 12.0146 246.353 9.79297 242.544 8.14258C238.735 6.53451 234.652 5.73047 230.293 5.73047C226.019 5.73047 221.999 6.53451 218.232 8.14258C214.508 9.79297 211.25 12.0146 208.457 14.8076C205.664 17.6429 203.442 20.9437 201.792 24.71C200.184 28.5186 199.38 32.5811 199.38 36.8975C199.38 41.1715 200.184 45.1917 201.792 48.958C203.442 52.7666 205.664 56.0674 208.457 58.8604C211.25 61.6956 214.508 63.9173 218.232 65.5254C221.999 67.1758 226.019 68.001 230.293 68.001ZM230.166 62.2246C226.865 62.2246 224.072 61.5898 221.787 60.3203C219.544 59.0508 217.725 57.2734 216.328 54.9883C214.932 52.7031 213.916 49.9948 213.281 46.8633C212.689 43.7318 212.393 40.3252 212.393 36.6436C212.393 33.0042 212.71 29.64 213.345 26.5508C213.979 23.4616 214.995 20.7744 216.392 18.4893C217.788 16.2464 219.608 14.4902 221.851 13.2207C224.136 11.9512 226.908 11.3164 230.166 11.3164C233.424 11.3164 236.196 11.9512 238.481 13.2207C240.767 14.4902 242.629 16.2464 244.067 18.4893C245.549 20.7744 246.606 23.4616 247.241 26.5508C247.918 29.64 248.257 33.0042 248.257 36.6436C248.257 40.3252 247.918 43.7318 247.241 46.8633C246.606 49.9948 245.549 52.7031 244.067 54.9883C242.629 57.2734 240.767 59.0508 238.481 60.3203C236.196 61.5898 233.424 62.2246 230.166 62.2246Z" fill="#1665FF"/>
</g>
<line x1="261.705" y1="20.7774" x2="199.777" y2="56.2948" stroke="#1665FF" stroke-width="7" stroke-linecap="round" stroke-linejoin="round"/>
</g>
<defs>
<filter id="filter0_d" x="195.38" y="5.73047" width="70.1436" height="70.2705" filterUnits="userSpaceOnUse" color-interpolation-filters="sRGB">
<feFlood flood-opacity="0" result="BackgroundImageFix"/>
<feColorMatrix in="SourceAlpha" type="matrix" values="0 0 0 0 0 0 0 0 0 0 0 0 0 0 0 0 0 0 127 0"/>
<feOffset dy="4"/>
<feGaussianBlur stdDeviation="2"/>
<feColorMatrix type="matrix" values="0 0 0 0 0 0 0 0 0 0 0 0 0 0 0 0 0 0 0.25 0"/>
<feBlend mode="normal" in2="BackgroundImageFix" result="effect1_dropShadow"/>
<feBlend mode="normal" in="SourceGraphic" in2="effect1_dropShadow" result="shape"/>
</filter>
<clipPath id="clip0">
<rect width="266" height="72" fill="white"/>
</clipPath>
</defs>
</svg>
